# Apple ModelIO OBJ File: naturePack_flat_010
mtllib naturePack_flat_010.mtl
g 
v 0.26837 0.107776 -0.242963
v 0.447925 0 -0.242963
v 0.26837 0 -0.242963
v 0.485926 0.210877 -0.242963
vn 0 0 -1
vn -0 -0 1
vt -10.5657 4.24315
vt -17.6348 0
vt -10.5657 0
vt -19.1309 8.30223
usemtl material_1
f 1/1/1 2/2/1 3/3/1
f 2/2/1 1/1/1 4/4/1
f 3/3/2 2/2/2 1/1/2
f 4/4/2 1/1/2 2/2/2
s off
g _1
v 0.242963 0 -0.0380007
v 0.242963 0.107776 -0.217556
v 0.242963 0.210877 0
v 0.242963 0 -0.217556
vn 1 -1.98811e-16 1.49012e-08
vn -1 1.98811e-16 -1.49012e-08
vt 1.49609 0
vt 8.5652 4.24315
vt 1.42537e-07 8.30223
vt 8.5652 0
usemtl material_2
f 5/5/3 6/6/3 7/7/3
f 6/6/3 5/5/3 8/8/3
f 7/7/4 6/6/4 5/5/4
f 8/8/4 5/5/4 6/6/4
s off
g _2
v 0.242963 0 -0.26837
v 0.217556 0 -0.242963
v 0.217556 0 -0.26837
v 0.217556 0 -0.217556
v 0.217556 0.2821 -0.26837
v 0.217556 0.2821 -0.217556
v 0.26837 0.2821 -0.217556
v 0.242963 0 -0.217556
v 0.26837 0 -0.217556
v 0.26837 0 -0.26837
v 0.26837 0.2821 -0.26837
vn 0 -1 -0
vn -0 1 0
vn -1 0 -0
vn 1 -0 0
vn 0 0 1
vn -0 -0 -1
vt -9.56547 10.5657
vt -8.5652 9.56547
vt -8.5652 10.5657
vt -8.5652 8.5652
vt -9.56547 0
vt -10.5657 11.1063
vt -10.5657 0
vt -8.5652 0
vt -8.5652 11.1063
vt 8.5652 0
vt 10.5657 11.1063
vt 8.5652 11.1063
vt 9.56547 0
vt 10.5657 0
vt -9.56547 8.5652
vt -10.5657 8.5652
vt -10.5657 10.5657
usemtl material_3
f 9/9/5 10/10/5 11/11/5
f 10/10/5 9/9/5 12/12/5
f 11/11/6 10/10/6 9/9/6
f 10/13/7 13/14/7 11/15/7
f 12/16/7 13/14/7 10/13/7
f 13/14/7 12/16/7 14/17/7
f 14/17/8 12/16/8 13/14/8
f 12/18/9 15/19/9 14/20/9
f 16/21/9 15/19/9 12/18/9
f 15/19/9 16/21/9 17/22/9
f 17/22/10 16/21/10 15/19/10
f 16/23/5 9/9/5 17/24/5
f 12/12/5 9/9/5 16/23/5
f 12/12/6 9/9/6 10/10/6
f 16/23/6 9/9/6 12/12/6
f 17/24/6 9/9/6 16/23/6
f 17/24/5 9/9/5 18/25/5
f 18/25/6 9/9/6 17/24/6
f 9/13/10 13/17/10 18/15/10
f 13/17/10 9/13/10 11/16/10
f 11/16/9 9/13/9 13/17/9
f 18/15/9 13/17/9 9/13/9
f 18/15/10 13/17/10 19/14/10
f 19/14/9 13/17/9 18/15/9
s off
g _3
v 0.217556 0.2821 -0.26837
v 0.346125 0.2821 -0.346125
v 0.26837 0.2821 -0.26837
v 0.1398 0.2821 -0.346125
v 0.1398 0.2821 -0.1398
vn 0 -1 -0
vt -8.5652 10.5657
vt -13.627 13.627
vt -10.5657 10.5657
vt -5.50395 13.627
vt -5.50395 5.50395
usemtl material_4
f 20/26/11 21/27/11 22/28/11
f 20/26/11 23/29/11 21/27/11
f 23/29/11 20/26/11 24/30/11
s off
g _4
v 0.1398 0.2821 -0.1398
v 0.217556 0.2821 -0.26837
v 0.1398 0.2821 -0.346125
vn -0 1 0
vt -5.50395 5.50395
vt -8.5652 10.5657
vt -5.50395 13.627
usemtl material_5
f 25/31/12 26/32/12 27/33/12
s off
g _5
v 0.217556 0.2821 -0.217556
v 0.1398 0.2821 -0.1398
v 0.217556 0.2821 -0.26837
v 0.346125 0.2821 -0.1398
vn 0 -1 -0
vt -8.5652 8.5652
vt -5.50395 5.50395
vt -8.5652 10.5657
vt -13.627 5.50395
usemtl material_6
f 28/34/13 29/35/13 30/36/13
f 29/35/13 28/34/13 31/37/13
s off
g _6
v 0.346125 0.2821 -0.1398
v 0.217556 0.2821 -0.217556
v 0.1398 0.2821 -0.1398
vn -0 1 0
vt -13.627 5.50395
vt -8.5652 8.5652
vt -5.50395 5.50395
usemtl material_7
f 32/38/14 33/39/14 34/40/14
s off
g _7
v 0.346125 0.2821 -0.1398
v 0.217556 0.2821 -0.217556
v 0.26837 0.2821 -0.217556
vn 0 -1 -0
vt -13.627 5.50395
vt -8.5652 8.5652
vt -10.5657 8.5652
usemtl material_8
f 35/41/15 36/42/15 37/43/15
s off
g _8
v 0.26837 0.2821 -0.217556
v 0.217556 0.2821 -0.217556
v 0.346125 0.2821 -0.1398
v 0.217556 0 -0.217556
v 0.242963 0 -0.217556
vn -0 1 0
vn -0 -0 -1
vt -10.5657 8.5652
vt -8.5652 8.5652
vt -13.627 5.50395
vt 8.5652 11.1063
vt 10.5657 11.1063
vt 8.5652 0
vt 9.56547 0
usemtl material_9
f 38/44/16 39/45/16 40/46/16
f 39/47/17 38/48/17 41/49/17
f 41/49/17 38/48/17 42/50/17
s off
g _9
v 0.346125 0.2821 -0.1398
v 0.26837 0.2821 -0.217556
v 0.346125 0.2821 -0.346125
vn 0 -1 -0
vt -13.627 5.50395
vt -10.5657 8.5652
vt -13.627 13.627
usemtl material_10
f 43/51/18 44/52/18 45/53/18
s off
g _10
v 0.346125 0.2821 -0.346125
v 0.26837 0.2821 -0.217556
v 0.346125 0.2821 -0.1398
vn -0 1 0
vt -13.627 13.627
vt -10.5657 8.5652
vt -13.627 5.50395
usemtl material_11
f 46/54/19 47/55/19 48/56/19
s off
g _11
v 0.26837 0.2821 -0.26837
v 0.346125 0.2821 -0.346125
v 0.26837 0.2821 -0.217556
vn 0 -1 -0
vt -10.5657 10.5657
vt -13.627 13.627
vt -10.5657 8.5652
usemtl material_12
f 49/57/20 50/58/20 51/59/20
s off
g _12
v 0.26837 0.2821 -0.26837
v 0.346125 0.2821 -0.346125
v 0.217556 0.2821 -0.26837
v 0.26837 0.2821 -0.217556
v 0.26837 0 -0.242963
v 0.26837 0 -0.217556
v 0.26837 0 -0.26837
v 0.1398 0.2821 -0.346125
vn -0 1 0
vn 1 0 -0
vn -1 -0 0
vn 0 -1 -0
vt -10.5657 10.5657
vt -13.627 13.627
vt -8.5652 10.5657
vt -10.5657 8.5652
vt 8.5652 11.1063
vt 9.56547 0
vt 10.5657 11.1063
vt 8.5652 0
vt 10.5657 0
vt -10.5657 9.56547
vt -5.50395 13.627
usemtl material_13
f 52/60/21 53/61/21 54/62/21
f 55/63/21 53/61/21 52/60/21
f 55/64/22 56/65/22 52/66/22
f 56/65/22 55/64/22 57/67/22
f 57/67/23 55/64/23 56/65/23
f 52/66/23 56/65/23 55/64/23
f 52/66/22 56/65/22 58/68/22
f 58/68/23 56/65/23 52/66/23
f 57/63/24 58/60/24 56/69/24
f 56/69/21 58/60/21 57/63/21
f 53/61/21 59/70/21 54/62/21
s off
g _13
v 0.0975037 0.4 -0.388422
v 0.346125 0.2821 -0.346125
v 0.1398 0.2821 -0.346125
v 0.388422 0.4 -0.388422
vn 4.58419e-18 -0.337678 -0.941262
vt -3.83873 19.9869
vt -13.627 15.0555
vt -5.50395 15.0555
vt -15.2922 19.9869
usemtl material_14
f 60/71/25 61/72/25 62/73/25
f 61/72/25 60/71/25 63/74/25
s off
g _14
v 0.1398 0.2821 -0.346125
v 0.346125 0.2821 -0.346125
v 0.0975037 0.4 -0.388422
v 0.388422 0.4 -0.388422
vn -4.58419e-18 0.337678 0.941262
vt -5.50395 15.0555
vt -13.627 15.0555
vt -3.83873 19.9869
vt -15.2922 19.9869
usemtl material_15
f 64/75/26 65/76/26 66/77/26
f 67/78/26 66/77/26 65/76/26
s off
g _15
v 0.0975037 0.4 -0.388422
v 0.388422 0.4 -0.0975037
v 0.388422 0.4 -0.388422
v 0.0975037 0.4 -0.0975037
vn 0 1 -0
vt 3.83873 15.2922
vt 15.2922 3.83873
vt 15.2922 15.2922
vt 3.83873 3.83873
usemtl material_16
f 68/79/27 69/80/27 70/81/27
f 69/80/27 68/79/27 71/82/27
s off
g _16
v 0.0975037 0.4 -0.0975037
v 0.0975037 0.4 -0.388422
v 0.388422 0.4 -0.0975037
vn -0 -1 0
vt 3.83873 3.83873
vt 3.83873 15.2922
vt 15.2922 3.83873
usemtl material_17
f 72/83/28 73/84/28 74/85/28
s off
g _17
v 0.0975037 0.4 -0.388422
v 0.1398 0.2821 -0.1398
v 0.0975037 0.4 -0.0975037
v 0.1398 0.2821 -0.346125
vn -0.941262 -0.337678 -3.86791e-18
vt -15.2922 13.5268
vt -5.50395 8.59537
vt -3.83873 13.5268
vt -13.627 8.59537
usemtl material_18
f 75/86/29 76/87/29 77/88/29
f 76/87/29 75/86/29 78/89/29
s off
g _18
v 0.0975037 0.4 -0.0975037
v 0.1398 0.2821 -0.1398
v 0.0975037 0.4 -0.388422
vn 0.941262 0.337678 3.86791e-18
vt -3.83873 13.5268
vt -5.50395 8.59537
vt -15.2922 13.5268
usemtl material_19
f 79/90/30 80/91/30 81/92/30
s off
g _19
v 0.1398 0.2821 -0.1398
v 0.388422 0.4 -0.0975037
v 0.0975037 0.4 -0.0975037
v 0.346125 0.2821 -0.1398
vn 8.67721e-18 -0.337678 0.941262
vt 5.50395 8.59537
vt 15.2922 13.5268
vt 3.83873 13.5268
vt 13.627 8.59537
usemtl material_20
f 82/93/31 83/94/31 84/95/31
f 83/94/31 82/93/31 85/96/31
s off
g _20
v 0.346125 0.2821 -0.1398
v 0.1398 0.2821 -0.1398
v 0.388422 0.4 -0.0975037
v 0.0975037 0.4 -0.0975037
vn -8.67721e-18 0.337678 -0.941262
vt 13.627 8.59537
vt 5.50395 8.59537
vt 15.2922 13.5268
vt 3.83873 13.5268
usemtl material_21
f 86/97/32 87/98/32 88/99/32
f 89/100/32 88/99/32 87/98/32
s off
g _21
v 0.346125 0.2821 -0.1398
v 0.388422 0.4 -0.388422
v 0.388422 0.4 -0.0975037
v 0.346125 0.2821 -0.346125
vn 0.941262 -0.337678 2.25116e-19
vt 5.50395 15.0555
vt 15.2922 19.9869
vt 3.83873 19.9869
vt 13.627 15.0555
usemtl material_22
f 90/101/33 91/102/33 92/103/33
f 91/102/33 90/101/33 93/104/33
s off
g _22
v 0.388422 0.4 -0.0975037
v 0.388422 0.4 -0.388422
v 0.346125 0.2821 -0.1398
v 0.0975037 0.4 -0.388422
v 0.346125 0.2821 -0.346125
v 0.1398 0.2821 -0.346125
v 0.1398 0.2821 -0.1398
v 0.217556 0.2821 -0.26837
v 0.217556 0.2821 -0.217556
v 0.217556 0 -0.26837
v 0.217556 0 -0.242963
v 0.217556 0 -0.217556
vn -0.941262 0.337678 -2.25116e-19
vn -0 -1 0
vn 0.941262 0.337678 3.86791e-18
vn -0 1 0
vn 1 -0 0
vt 3.83873 19.9869
vt 15.2922 19.9869
vt 5.50395 15.0555
vt 15.2922 15.2922
vt 15.2922 3.83873
vt 3.83873 15.2922
vt 13.627 15.0555
vt -13.627 8.59537
vt -15.2922 13.5268
vt -5.50395 8.59537
vt -8.5652 10.5657
vt -5.50395 5.50395
vt -8.5652 8.5652
vt -10.5657 0
vt -10.5657 11.1063
vt -9.56547 0
vt -8.5652 0
usemtl material_23
f 94/105/34 95/106/34 96/107/34
f 95/108/35 94/109/35 97/110/35
f 98/111/34 96/107/34 95/106/34
f 99/112/36 97/113/36 100/114/36
f 101/115/37 100/116/37 102/117/37
f 103/118/38 101/119/38 104/120/38
f 104/120/38 101/119/38 105/121/38
s off
g _23
v 0 0.210877 -0.242963
v 0.217556 0 -0.242963
v 0.0380007 0 -0.242963
v 0.217556 0.107776 -0.242963
vn 0 0 -1
vn -0 -0 1
vt 0 8.30223
vt -8.5652 0
vt -1.49609 0
vt -8.5652 4.24315
usemtl material_24
f 106/122/39 107/123/39 108/124/39
f 107/123/39 106/122/39 109/125/39
f 108/124/40 107/123/40 106/122/40
f 109/125/40 106/122/40 107/123/40
s off
g _24
v 0.242963 0 -0.447925
v 0.242963 0.107776 -0.26837
v 0.242963 0 -0.26837
v 0.242963 0.210877 -0.485926
vn 1 2.01317e-16 1.49012e-08
vn -1 -2.01317e-16 -1.49012e-08
vt 17.6348 0
vt 10.5657 4.24315
vt 10.5657 0
vt 19.1309 8.30223
usemtl material_25
f 110/126/41 111/127/41 112/128/41
f 111/127/41 110/126/41 113/129/41
f 112/128/42 111/127/42 110/126/42
f 113/129/42 110/126/42 111/127/42
s off
